<?xml version="1.0" encoding="utf-8"?>
<!-- Generator: Adobe Illustrator 27.2.0, SVG Export Plug-In . SVG Version: 6.00 Build 0)  -->
<svg version="1.1" id="Layer_1" xmlns="http://www.w3.org/2000/svg" xmlns:xlink="http://www.w3.org/1999/xlink" x="0px" y="0px"
	 width="518.4px" height="144px" viewBox="0 0 518.4 144" style="enable-background:new 0 0 518.4 144;" xml:space="preserve">
<path d="M477.44,53.96c-0.25-1.67-0.53-3.32-0.84-4.94c20-0.32,34.93-8.63,34.93-19.59c0-10.99-15.87-19.6-36.12-19.6
	c-11.62,0-22.51,2.92-29.17,7.81c-9.97,6.47-16.88,26.4-17.77,50.55c-0.07-0.2-0.14-0.4-0.22-0.6
	c-10.4-27.98-27.38-47.4-40.47-46.48c-13.06-0.91-30.05,18.51-40.47,46.48c-0.47,1.26-0.91,2.51-1.33,3.76
	c-0.48-3.59-1.22-7.2-2.24-10.78c-8.71-30.67-34.82-50.22-58.21-43.59c-9.42,2.67-17.23,9.29-22.45,18.59
	c-1.73-8.21-5.47-13.63-10.95-15.45c-9.19-3.04-23.29,5.37-35.38,30.33c-7.65-13.2-16.63-22.86-24.75-26.43
	c-0.39-0.21-0.73-0.36-1-0.47c-1.18-0.51-2.46-0.82-3.79-0.95c-2.48-0.37-4.81-0.12-6.93,0.75c-0.58,0.24-1.07,0.5-1.5,0.75
	l-0.19,0.11c-0.34,0.19-0.67,0.39-1.04,0.57c-11.36,5.74-23.8,22.03-32.47,42.52c-0.15,0.35-0.29,0.7-0.43,1.05
	c-2.06-29.67-21.59-53.01-45.32-53.01c-19.62,0-36.38,15.96-42.76,38.25c-3.38-22.76-12.5-38.25-23.82-38.25
	c-14.38,0-25.23,25.01-25.23,58.18s10.85,58.18,25.23,58.18c11.32,0,20.44-15.49,23.82-38.25c6.38,22.3,23.14,38.25,42.76,38.25
	c14.79,0,27.95-9.07,36.27-23.08c0.12,11.56,3.66,19.37,10.07,22.08c1.57,0.67,3.24,0.99,4.98,0.99c10.56,0,23.72-11.97,34.58-31.65
	c9.78,18.08,21.94,29.98,31.99,30.96c6.9,1.26,14.65-3.12,22.41-12.69c7.14-8.79,13.58-21.23,18.15-35.03
	c0.15-0.44,0.27-0.88,0.41-1.32c0.22,0.9,0.45,1.79,0.71,2.69c4.17,14.69,12.41,27.32,23.21,35.55c8.08,6.16,16.89,9.34,25.53,9.34
	c3.2,0,6.38-0.44,9.48-1.32c9.46-2.68,17.28-9.22,22.53-18.69c0.69,11.05,4.4,18.91,11.04,21.38c1.42,0.53,2.9,0.79,4.43,0.78
	c9.62,0,21.11-10.23,31.04-28.07c0.48-0.87,1.29-0.96,1.62-0.96h0c0.32,0,1.13,0.09,1.62,0.97c11.53,20.67,25.12,31.12,35.48,27.28
	c5.59-2.08,9.11-7.99,10.49-16.4c4.52,10.71,10.92,17.18,18.23,17.18c11.17,0,20.38-15.04,23.84-38.61
	c19.57-0.54,34.09-8.77,34.09-19.57C511.53,62.73,497.01,54.5,477.44,53.96z M307.77,95.28c-5.98,1.7-12.49-1.39-17.22-7.35
	c-2.34-2.95-4.24-6.59-5.42-10.72c-0.88-3.11-1.29-6.25-1.23-9.26c0.02-0.75,0.06-1.5,0.14-2.24c0.23-2.21,0.72-4.33,1.47-6.3
	c1.65-4.32,4.41-7.43,7.86-8.93c0.49-0.21,1-0.4,1.52-0.54c1.06-0.3,2.15-0.45,3.25-0.45c5.14,0,10.55,3.18,14.55,8.58
	c-2.73,1.06-5.19,2.33-7.32,3.75c-6.36,4.25-9.68,9.79-8.23,14.89l0,0c1.77,6.21,9.98,9.32,20.34,8.08
	C315.73,90.15,312.22,94.03,307.77,95.28z M387.63,57.41h0.31c1.04,0.41,3.73,3.32,5.71,8.65c1.6,4.29,1.82,7.69,1.58,9.37
	c-0.78-0.68-1.93-1.99-3.13-4.13c-0.87-1.57-2.53-2.55-4.32-2.55c0,0,0,0,0,0c-1.79,0-3.45,0.98-4.32,2.54
	c-1.19,2.14-2.33,3.45-3.12,4.13c-0.24-1.69-0.02-5.09,1.57-9.37C383.9,60.73,386.59,57.82,387.63,57.41z M107.14,72.28
	c-0.01,0.05-0.03,0.1-0.04,0.15c-0.31,1.16-0.68,2.35-1.14,3.57c-0.36,0.97-0.75,1.87-1.15,2.75c-0.31,0.67-0.63,1.32-0.96,1.94
	c-0.09,0.17-0.17,0.34-0.26,0.51c-2.86,5.18-6.29,8.34-8.7,9.17c-0.72,0.25-1.35,0.28-1.85,0.1c-0.82-0.31-1.53-1.32-2-2.88
	c-0.38-1.25-0.6-2.85-0.61-4.71c-0.01-3.26,0.64-7.34,2.29-11.79c2.4-6.44,5.88-10.92,8.78-13.09c1.32-0.99,2.52-1.5,3.44-1.5
	c0.25,0,0.48,0.04,0.69,0.12c0.16,0.06,0.32,0.15,0.48,0.27c0.22,0.16,0.42,0.4,0.61,0.67c1.55,2.16,2.21,7.55,0.52,14.29
	C107.21,71.98,107.18,72.12,107.14,72.28z"/>
</svg>
